<?xml version="1.0" encoding="UTF-8"?>
<svg width="22px" height="28px" viewBox="0 0 22 28" version="1.1" xmlns="http://www.w3.org/2000/svg" xmlns:xlink="http://www.w3.org/1999/xlink">
    <!-- Generator: Sketch 46.1 (44463) - http://www.bohemiancoding.com/sketch -->
    <title>Fill 1</title>
    <desc>Created with Sketch.</desc>
    <defs></defs>
    <g id="Design" stroke="none" stroke-width="1" fill="none" fill-rule="evenodd">
        <g id="16_ca1---Check-Avail.-Modal---Step-1" transform="translate(-95.000000, -461.000000)" stroke="#009FDB" stroke-width="0.5" fill="#009FDB">
            <g id="Card-1b" transform="translate(0.000000, 60.000000)">
                <g id="Button:-Find-Location" transform="translate(96.000000, 402.000000)">
                    <path d="M19.3541999,9.94091692 C19.3541999,4.81584696 15.158221,0.645700146 10.0012916,0.645700146 C4.84264003,0.645700146 0.645800146,4.81584696 0.645800146,9.94091692 C0.645800146,12.6085021 1.80479614,15.1529546 3.82572007,16.9190028 C3.89374435,16.9827217 5.32053214,18.3165143 6.05674431,19.5323407 C6.06793818,19.5452567 6.07913204,19.5607559 6.08860378,19.575394 L9.74469368,25.7277168 C9.8635209,25.9688155 10.1519783,25.9455667 10.2458346,25.7501045 L13.9131184,19.5736719 C14.6433031,18.3483738 16.1062557,16.9835828 16.1682525,16.9258913 C18.1952039,15.1546768 19.3541999,12.6110853 19.3541999,9.94091692 M20,9.94091692 C20,12.7970757 18.7609248,15.5189081 16.600508,17.4055055 C16.5927584,17.4123941 15.1504714,18.7591027 14.4685065,19.9025994 L10.8149998,26.0557832 C10.6737848,26.349407 10.3500237,26.554341 10.0012916,26.554341 C9.64653205,26.554341 9.32965945,26.3545734 9.17638955,26.0316734 L5.55904766,19.9490971 C5.54699272,19.93532 5.53665992,19.9215429 5.52718819,19.9051826 C4.84780643,18.7582416 3.40724157,17.4123941 3.39260344,17.398617 C1.23907521,15.5163249 0,12.7944925 0,9.94091692 C0,4.45936528 4.48615835,-0.0001 10.0012916,-0.0001 C15.5147027,-0.0001 20,4.45936528 20,9.94091692 M16.5789814,9.8556713 C16.5789814,13.4644025 13.6289663,16.3989184 10.0012916,16.3989184 C6.89197916,16.3989184 4.18134068,14.2014758 3.55706721,11.1756868 C3.5209024,11.0000292 3.63284109,10.8295379 3.80763766,10.7933731 C3.9807121,10.7580694 4.15378654,10.869147 4.18909028,11.0439436 C4.75222801,13.7726645 7.19679683,15.7531182 10.0012916,15.7531182 C13.2724846,15.7531182 15.9331812,13.1079208 15.9331812,9.8556713 C15.9331812,6.60600496 13.2724846,3.96166863 10.0012916,3.96166863 C9.74813794,3.96166863 9.49240108,3.97716783 9.2426917,4.00902731 C9.06272872,4.03227611 8.90429242,3.90656035 8.88190468,3.73004165 C8.85951694,3.55266187 8.98437164,3.39164237 9.16175141,3.36839356 C9.43815387,3.33308982 9.7205838,3.31586848 10.0012916,3.31586848 C13.6289663,3.31586848 16.5789814,6.24952328 16.5789814,9.8556713" id="Fill-1"></path>
                </g>
            </g>
        </g>
    </g>
</svg>