<?xml version="1.0" encoding="utf-8"?>
<!-- Generator: Adobe Illustrator 17.1.0, SVG Export Plug-In . SVG Version: 6.00 Build 0)  -->
<!DOCTYPE svg PUBLIC "-//W3C//DTD SVG 1.1//EN" "http://www.w3.org/Graphics/SVG/1.1/DTD/svg11.dtd">
<svg version="1.1" id="Layer_1" xmlns:svg="http://www.w3.org/2000/svg"
	 xmlns="http://www.w3.org/2000/svg" xmlns:xlink="http://www.w3.org/1999/xlink" x="0px" y="0px" viewBox="0 0 177 72"
	 enable-background="new 0 0 177 72" xml:space="preserve">
<g>
	<g>
		<g>
			<defs>
				<path id="SVGID_1_" d="M72,37.1c0,19.9-16.1,36-36,36S0,56.9,0,37.1c0-19.9,16.1-36,36-36S72,17.2,72,37.1z"/>
			</defs>
			<clipPath id="SVGID_2_">
				<use xlink:href="#SVGID_1_"  overflow="visible"/>
			</clipPath>
			<g id="g35" clip-path="url(#SVGID_2_)">
				<path id="path37" fill="#B2B4B6" d="M72.9,37c0,20.1-16.3,36.5-36.5,36.5S0,57.1,0,37C0,16.9,16.3,0.5,36.5,0.5
					S72.9,16.8,72.9,37z"/>
				<path id="path39" fill="#B2B4B7" d="M72.9,37c0,20.1-16.3,36.4-36.4,36.4S0.1,57.1,0.1,37c0-20.1,16.3-36.4,36.4-36.4
					S72.9,16.9,72.9,37z"/>
				<path id="path41" fill="#B2B4B7" d="M72.8,37c0,20-16.2,36.3-36.3,36.3S0.3,57,0.3,37c0-20,16.2-36.3,36.3-36.3
					C56.6,0.7,72.8,16.9,72.8,37z"/>
				<path id="path43" fill="#B3B5B8" d="M72.7,36.9c0,20-16.2,36.1-36.2,36.1c-20,0-36.2-16.2-36.2-36.1c0-20,16.2-36.2,36.2-36.2
					C56.5,0.8,72.7,17,72.7,36.9z"/>
				<path id="path45" fill="#B4B6B8" d="M72.7,36.9c0,19.9-16.1,36-36,36c-19.9,0-36-16.1-36-36c0-19.9,16.1-36,36-36
					C56.5,0.9,72.7,17,72.7,36.9z"/>
				<path id="path47" fill="#B5B7B9" d="M72.6,36.9c0,19.8-16.1,35.9-35.9,35.9S0.7,56.7,0.7,36.9C0.7,17,16.8,0.9,36.7,0.9
					C56.5,0.9,72.6,17,72.6,36.9z"/>
				<path id="path49" fill="#B6B8BA" d="M72.5,36.9c0,19.8-16,35.8-35.8,35.8S0.9,56.7,0.9,36.9C0.9,17.1,16.9,1,36.7,1
					C56.5,1,72.5,17.1,72.5,36.9z"/>
				<path id="path51" fill="#B7B9BB" d="M72.5,36.8c0,19.7-16,35.7-35.7,35.7C17,72.6,1,56.6,1,36.8C1,17.1,17,1.1,36.7,1.1
					C56.5,1.1,72.5,17.1,72.5,36.8z"/>
				<path id="path53" fill="#B7B9BC" d="M72.4,36.8c0,19.7-15.9,35.6-35.6,35.6c-19.7,0-35.6-15.9-35.6-35.6
					c0-19.7,15.9-35.6,35.6-35.6C56.4,1.2,72.4,17.2,72.4,36.8z"/>
				<path id="path55" fill="#B7B9BC" d="M72.3,36.8c0,19.6-15.9,35.5-35.5,35.5c-19.6,0-35.5-15.9-35.5-35.5
					c0-19.6,15.9-35.5,35.5-35.5C56.4,1.3,72.3,17.2,72.3,36.8z"/>
				<path id="path57" fill="#B8BABC" d="M72.3,36.8c0,19.6-15.9,35.4-35.4,35.4c-19.6,0-35.4-15.9-35.4-35.4
					c0-19.6,15.9-35.4,35.4-35.4C56.4,1.3,72.3,17.2,72.3,36.8z"/>
				<path id="path59" fill="#B9BBBD" d="M72.3,36.8c0,19.5-15.8,35.4-35.4,35.4S1.6,56.3,1.6,36.8c0-19.5,15.8-35.4,35.4-35.4
					S72.3,17.2,72.3,36.8z"/>
				<path id="path61" fill="#BABCBE" d="M72.2,36.7C72.2,56.2,56.5,72,37,72S1.7,56.2,1.7,36.7C1.7,17.3,17.5,1.5,37,1.5
					S72.2,17.3,72.2,36.7z"/>
				<path id="path63" fill="#BBBDBF" d="M72.2,36.7c0,19.4-15.8,35.2-35.2,35.2c-19.4,0-35.2-15.8-35.2-35.2
					C1.8,17.3,17.6,1.5,37,1.5C56.5,1.5,72.2,17.3,72.2,36.7z"/>
				<path id="path65" fill="#BCBDC0" d="M72.2,36.7c0,19.4-15.7,35.1-35.1,35.1c-19.4,0-35.1-15.7-35.1-35.1
					c0-19.4,15.7-35.1,35.1-35.1C56.5,1.6,72.2,17.3,72.2,36.7z"/>
				<path id="path67" fill="#BCBEC0" d="M72.2,36.7c0,19.4-15.7,35-35,35c-19.4,0-35-15.7-35-35c0-19.4,15.7-35.1,35-35.1
					C56.5,1.6,72.2,17.3,72.2,36.7z"/>
				<path id="path69" fill="#BDBFC1" d="M72.1,36.7c0,19.3-15.7,35-35,35c-19.3,0-35-15.7-35-35c0-19.3,15.7-35,35-35
					C56.5,1.7,72.1,17.3,72.1,36.7z"/>
				<path id="path71" fill="#BEC0C2" d="M72.1,36.6c0,19.3-15.6,34.9-34.9,34.9C18,71.5,2.3,55.9,2.3,36.6C2.3,17.4,18,1.7,37.2,1.7
					C56.5,1.7,72.1,17.4,72.1,36.6z"/>
				<path id="path73" fill="#BFC1C3" d="M72.1,36.6c0,19.2-15.6,34.8-34.8,34.8C18,71.5,2.5,55.9,2.5,36.6C2.5,17.4,18,1.8,37.3,1.8
					C56.5,1.8,72.1,17.4,72.1,36.6z"/>
				<path id="path75" fill="#C0C2C4" d="M72.1,36.6c0,19.2-15.6,34.7-34.7,34.7c-19.2,0-34.7-15.6-34.7-34.7
					c0-19.2,15.6-34.7,34.7-34.7C56.5,1.9,72.1,17.4,72.1,36.6z"/>
				<path id="path77" fill="#C1C2C4" d="M72.1,36.6c0,19.1-15.5,34.7-34.7,34.7c-19.1,0-34.7-15.5-34.7-34.7
					c0-19.2,15.5-34.7,34.7-34.7C56.5,1.9,72.1,17.4,72.1,36.6z"/>
				<path id="path79" fill="#C1C3C5" d="M72,36.6c0,19.1-15.5,34.6-34.6,34.6c-19.1,0-34.6-15.5-34.6-34.6C2.8,17.5,18.3,2,37.4,2
					C56.5,2,72,17.5,72,36.6z"/>
				<path id="path81" fill="#C2C4C6" d="M72,36.6c0,19.1-15.5,34.5-34.5,34.5C18.4,71.1,3,55.6,3,36.6C3,17.5,18.4,2,37.5,2
					C56.5,2,72,17.5,72,36.6z"/>
				<path id="path83" fill="#C3C5C7" d="M72,36.5C72,55.6,56.6,71,37.5,71c-19,0-34.4-15.4-34.4-34.4c0-19,15.4-34.4,34.4-34.4
					C56.6,2.1,72,17.5,72,36.5z"/>
				<path id="path85" fill="#C4C6C8" d="M72,36.5c0,19-15.4,34.4-34.4,34.4c-19,0-34.4-15.4-34.4-34.4c0-19,15.4-34.4,34.4-34.4
					C56.6,2.1,72,17.5,72,36.5z"/>
				<path id="path87" fill="#C5C6C8" d="M71.9,36.5c0,18.9-15.4,34.3-34.3,34.3c-18.9,0-34.3-15.3-34.3-34.3
					c0-18.9,15.4-34.3,34.3-34.3C56.6,2.2,71.9,17.6,71.9,36.5z"/>
				<path id="path89" fill="#C5C7C9" d="M71.9,36.5c0,18.9-15.3,34.2-34.2,34.2c-18.9,0-34.2-15.3-34.2-34.2
					c0-18.9,15.3-34.2,34.2-34.2C56.6,2.3,71.9,17.6,71.9,36.5z"/>
				<path id="path91" fill="#C6C8CA" d="M71.9,36.5c0,18.9-15.3,34.1-34.1,34.1c-18.9,0-34.1-15.3-34.1-34.1
					c0-18.9,15.3-34.1,34.1-34.1C56.6,2.3,71.9,17.6,71.9,36.5z"/>
				<path id="path93" fill="#C7C9CB" d="M71.9,36.4c0,18.8-15.2,34.1-34.1,34.1C19,70.5,3.7,55.3,3.7,36.4C3.7,17.6,19,2.4,37.8,2.4
					C56.6,2.4,71.9,17.6,71.9,36.4z"/>
				<path id="path95" fill="#C8CACC" d="M71.8,36.4c0,18.8-15.2,34-34,34c-18.8,0-34-15.2-34-34c0-18.8,15.2-34,34-34
					C56.6,2.4,71.8,17.6,71.8,36.4z"/>
				<path id="path97" fill="#C9CBCC" d="M71.8,36.4c0,18.7-15.2,33.9-33.9,33.9C19.2,70.3,4,55.1,4,36.4C4,17.7,19.2,2.5,37.9,2.5
					C56.6,2.5,71.8,17.7,71.8,36.4z"/>
				<path id="path99" fill="#CACBCD" d="M71.8,36.4c0,18.7-15.1,33.8-33.8,33.8c-18.7,0-33.8-15.1-33.8-33.8
					C4.1,17.7,19.3,2.5,38,2.5C56.6,2.5,71.8,17.7,71.8,36.4z"/>
				<path id="path101" fill="#CBCCCE" d="M71.8,36.4C71.8,55,56.6,70.1,38,70.1C19.4,70.1,4.2,55,4.2,36.4C4.2,17.7,19.4,2.6,38,2.6
					C56.6,2.6,71.8,17.7,71.8,36.4z"/>
				<path id="path103" fill="#CBCDCF" d="M71.7,36.3C71.7,54.9,56.7,70,38.1,70C19.5,70,4.4,54.9,4.4,36.3
					c0-18.6,15.1-33.7,33.7-33.7C56.7,2.7,71.7,17.7,71.7,36.3z"/>
				<path id="path105" fill="#CCCED0" d="M71.7,36.3c0,18.6-15,33.6-33.6,33.6c-18.6,0-33.6-15-33.6-33.6c0-18.6,15-33.6,33.6-33.6
					C56.7,2.7,71.7,17.8,71.7,36.3z"/>
				<path id="path107" fill="#CDCFD0" d="M71.7,36.3c0,18.5-15,33.5-33.5,33.5c-18.5,0-33.5-15-33.5-33.5c0-18.5,15-33.5,33.5-33.5
					C56.7,2.8,71.7,17.8,71.7,36.3z"/>
				<path id="path109" fill="#CECFD1" d="M71.7,36.3c0,18.5-15,33.5-33.5,33.5c-18.5,0-33.5-15-33.5-33.5c0-18.5,15-33.5,33.5-33.5
					C56.7,2.8,71.7,17.8,71.7,36.3z"/>
				<path id="path111" fill="#CFD0D2" d="M71.6,36.3c0,18.4-14.9,33.4-33.4,33.4c-18.4,0-33.4-14.9-33.4-33.4
					c0-18.4,14.9-33.4,33.4-33.4C56.7,2.9,71.6,17.8,71.6,36.3z"/>
				<path id="path113" fill="#D0D1D3" d="M71.6,36.3c0,18.4-14.9,33.3-33.3,33.3C19.9,69.5,5,54.6,5,36.3C5,17.9,19.9,2.9,38.3,2.9
					C56.7,2.9,71.6,17.9,71.6,36.3z"/>
				<path id="path115" fill="#D0D2D3" d="M71.6,36.2c0,18.3-14.9,33.2-33.2,33.2C20,69.5,5.1,54.6,5.1,36.2C5.1,17.9,20,3,38.4,3
					C56.7,3,71.6,17.9,71.6,36.2z"/>
				<path id="path117" fill="#D1D3D4" d="M71.6,36.2c0,18.3-14.8,33.1-33.1,33.1c-18.3,0-33.2-14.8-33.2-33.1
					c0-18.3,14.8-33.2,33.2-33.2C56.7,3.1,71.6,17.9,71.6,36.2z"/>
				<path id="path119" fill="#D2D3D5" d="M71.5,36.2c0,18.2-14.8,33-33,33c-18.2,0-33-14.8-33-33c0-18.3,14.8-33,33-33
					C56.7,3.1,71.5,17.9,71.5,36.2z"/>
				<path id="path121" fill="#D3D4D6" d="M71.5,36.2c0,18.2-14.7,32.9-32.9,32.9c-18.2,0-32.9-14.7-32.9-32.9
					C5.6,18,20.3,3.2,38.5,3.2C56.7,3.2,71.5,18,71.5,36.2z"/>
				<path id="path123" fill="#D4D5D7" d="M71.4,36.1C71.4,54.3,56.7,69,38.6,69C20.5,69,5.8,54.3,5.8,36.1C5.8,18,20.5,3.3,38.6,3.3
					C56.7,3.3,71.4,18,71.4,36.1z"/>
				<path id="path125" fill="#D5D6D7" d="M71.4,36.1c0,18.1-14.7,32.7-32.7,32.7c-18.1,0-32.7-14.6-32.7-32.7
					C5.9,18,20.6,3.4,38.6,3.4C56.7,3.4,71.4,18,71.4,36.1z"/>
				<path id="path127" fill="#D5D7D8" d="M71.3,36.1c0,18-14.6,32.6-32.6,32.6c-18,0-32.6-14.6-32.6-32.6c0-18,14.6-32.6,32.6-32.6
					C56.7,3.5,71.3,18.1,71.3,36.1z"/>
				<path id="path129" fill="#D6D7D9" d="M71.3,36.1c0,18-14.6,32.5-32.5,32.5c-18,0-32.5-14.6-32.5-32.5c0-18,14.6-32.5,32.5-32.5
					C56.7,3.5,71.3,18.1,71.3,36.1z"/>
				<path id="path131" fill="#D7D8DA" d="M71.2,36c0,17.9-14.5,32.4-32.4,32.4C20.9,68.4,6.4,53.9,6.4,36
					c0-17.9,14.5-32.4,32.4-32.4C56.7,3.6,71.2,18.1,71.2,36z"/>
				<path id="path133" fill="#D8D9DB" d="M71.2,36c0,17.8-14.5,32.3-32.3,32.3C21,68.3,6.6,53.8,6.6,36C6.6,18.2,21,3.7,38.9,3.7
					C56.7,3.7,71.2,18.2,71.2,36z"/>
				<path id="path135" fill="#D8D9DB" d="M71.1,36c0,17.8-14.4,32.2-32.2,32.2C21.1,68.2,6.7,53.8,6.7,36
					c0-17.8,14.4-32.2,32.2-32.2C56.7,3.8,71.1,18.2,71.1,36z"/>
				<path id="path137" fill="#D9DADB" d="M71.1,35.9C71.1,53.7,56.7,68,39,68C21.3,68,6.9,53.7,6.9,35.9C6.9,18.2,21.3,3.9,39,3.9
					C56.7,3.9,71.1,18.2,71.1,35.9z"/>
				<path id="path139" fill="#D9DBDC" d="M71,35.9c0,17.7-14.3,32-32,32c-17.7,0-32-14.3-32-32c0-17.7,14.3-32,32-32
					C56.7,3.9,71,18.3,71,35.9z"/>
				<path id="path141" fill="#DADCDD" d="M71,35.9c0,17.6-14.3,31.9-31.9,31.9c-17.6,0-31.9-14.3-31.9-31.9C7.2,18.3,21.5,4,39.1,4
					C56.7,4,71,18.3,71,35.9z"/>
				<path id="path143" fill="#DBDCDE" d="M70.9,35.9c0,17.5-14.2,31.8-31.8,31.8c-17.5,0-31.8-14.2-31.8-31.8
					c0-17.5,14.2-31.8,31.8-31.8C56.7,4.1,70.9,18.3,70.9,35.9z"/>
				<path id="path145" fill="#DCDDDE" d="M70.9,35.8c0,17.5-14.2,31.6-31.7,31.6c-17.5,0-31.7-14.2-31.7-31.6
					c0-17.5,14.2-31.7,31.7-31.7C56.7,4.2,70.9,18.4,70.9,35.8z"/>
				<path id="path147" fill="#DDDEDF" d="M70.8,35.8c0,17.4-14.1,31.5-31.5,31.5c-17.4,0-31.5-14.1-31.5-31.5
					c0-17.4,14.1-31.5,31.5-31.5C56.7,4.3,70.8,18.4,70.8,35.8z"/>
				<path id="path149" fill="#DEDFE0" d="M70.8,35.8c0,17.4-14.1,31.4-31.4,31.4S7.9,53.2,7.9,35.8C7.9,18.4,22,4.3,39.3,4.3
					C56.7,4.3,70.8,18.4,70.8,35.8z"/>
				<path id="path151" fill="#DEE0E1" d="M70.7,35.8c0,17.3-14,31.3-31.3,31.3S8,53.1,8,35.8c0-17.3,14-31.3,31.3-31.3
					S70.7,18.5,70.7,35.8z"/>
				<path id="path153" fill="#DFE0E2" d="M70.7,35.7C70.7,53,56.7,67,39.4,67C22.2,67,8.2,53,8.2,35.7c0-17.2,14-31.2,31.2-31.2
					C56.7,4.5,70.7,18.5,70.7,35.7z"/>
				<path id="path155" fill="#E0E1E2" d="M70.6,35.7c0,17.2-13.9,31.1-31.1,31.1S8.4,52.9,8.4,35.7c0-17.2,13.9-31.1,31.1-31.1
					S70.6,18.5,70.6,35.7z"/>
				<path id="path157" fill="#E1E2E3" d="M70.5,35.7c0,17.1-13.9,30.9-30.9,30.9S8.6,52.8,8.6,35.7c0-17.1,13.9-30.9,30.9-30.9
					S70.5,18.6,70.5,35.7z"/>
				<path id="path159" fill="#E2E3E4" d="M70.5,35.6c0,17-13.8,30.8-30.8,30.8S8.9,52.6,8.9,35.6c0-17,13.8-30.8,30.8-30.8
					C56.7,4.9,70.5,18.6,70.5,35.6z"/>
				<path id="path161" fill="#E3E4E5" d="M70.4,35.6c0,16.9-13.7,30.6-30.6,30.6c-16.9,0-30.6-13.7-30.6-30.6
					C9.2,18.7,22.9,5,39.8,5C56.7,5,70.4,18.7,70.4,35.6z"/>
				<path id="path163" fill="#E3E4E5" d="M70.3,35.6C70.3,52.4,56.7,66,39.9,66S9.5,52.4,9.5,35.6c0-16.8,13.6-30.4,30.4-30.4
					S70.3,18.7,70.3,35.6z"/>
				<path id="path165" fill="#E4E5E6" d="M70.3,35.5c0,16.7-13.5,30.2-30.3,30.2c-16.7,0-30.2-13.5-30.2-30.2
					C9.8,18.8,23.3,5.3,40,5.3C56.7,5.3,70.3,18.8,70.3,35.5z"/>
				<path id="path167" fill="#E5E6E7" d="M70.2,35.5c0,16.6-13.5,30.1-30.1,30.1c-16.6,0-30.1-13.5-30.1-30.1
					c0-16.6,13.5-30.1,30.1-30.1C56.7,5.4,70.2,18.9,70.2,35.5z"/>
				<path id="path169" fill="#E6E7E8" d="M70.1,35.4c0,16.5-13.4,29.9-29.9,29.9c-16.5,0-29.9-13.4-29.9-29.9
					c0-16.5,13.4-29.9,29.9-29.9C56.8,5.5,70.1,18.9,70.1,35.4z"/>
				<path id="path171" fill="#E7E8E9" d="M70.1,35.4c0,16.4-13.3,29.7-29.7,29.7c-16.4,0-29.7-13.3-29.7-29.7
					C10.6,19,23.9,5.7,40.3,5.7C56.8,5.7,70.1,19,70.1,35.4z"/>
				<path id="path173" fill="#E7E8E9" d="M70,35.4c0,16.3-13.2,29.6-29.6,29.6c-16.3,0-29.6-13.2-29.6-29.6
					C10.9,19,24.1,5.8,40.4,5.8C56.8,5.8,70,19,70,35.4z"/>
				<path id="path175" fill="#E8E8E9" d="M69.9,35.3c0,16.2-13.2,29.4-29.4,29.4c-16.2,0-29.4-13.2-29.4-29.4
					c0-16.2,13.2-29.4,29.4-29.4C56.8,5.9,69.9,19.1,69.9,35.3z"/>
				<path id="path177" fill="#E9E9EA" d="M69.9,35.3c0,16.1-13.1,29.2-29.2,29.2c-16.1,0-29.2-13.1-29.2-29.2
					c0-16.1,13.1-29.2,29.2-29.2C56.8,6.1,69.9,19.1,69.9,35.3z"/>
				<path id="path179" fill="#E9EAEB" d="M69.8,35.2c0,16-13,29-29,29c-16,0-29-13-29-29c0-16,13-29,29-29
					C56.8,6.2,69.8,19.2,69.8,35.2z"/>
				<path id="path181" fill="#EAEBEC" d="M69.7,35.2c0,15.9-12.9,28.9-28.9,28.9C24.9,64.1,12,51.1,12,35.2
					C12,19.2,24.9,6.3,40.9,6.3C56.8,6.3,69.7,19.2,69.7,35.2z"/>
				<path id="path183" fill="#EBECED" d="M69.7,35.2C69.7,51,56.8,63.8,41,63.8c-15.8,0-28.7-12.8-28.7-28.7
					C12.3,19.3,25.1,6.5,41,6.5C56.8,6.5,69.7,19.3,69.7,35.2z"/>
				<path id="path185" fill="#ECEDED" d="M69.6,35.1c0,15.8-12.8,28.5-28.5,28.5c-15.7,0-28.5-12.8-28.5-28.5
					c0-15.8,12.8-28.5,28.5-28.5C56.8,6.6,69.6,19.4,69.6,35.1z"/>
				<path id="path187" fill="#EDEDEE" d="M69.5,35.1c0,15.7-12.7,28.3-28.3,28.3c-15.7,0-28.3-12.7-28.3-28.3
					c0-15.7,12.7-28.3,28.3-28.3C56.9,6.7,69.5,19.4,69.5,35.1z"/>
				<path id="path189" fill="#EEEEEF" d="M69.4,35c0,15.5-12.5,28-28,28c-15.5,0-28-12.5-28-28c0-15.5,12.5-28,28-28
					C56.8,7,69.4,19.5,69.4,35z"/>
				<path id="path191" fill="#EEEFF0" d="M69.2,34.9c0,15.3-12.4,27.7-27.7,27.7c-15.3,0-27.7-12.4-27.7-27.7
					c0-15.3,12.4-27.7,27.7-27.7C56.8,7.3,69.2,19.7,69.2,34.9z"/>
				<path id="path193" fill="#EFF0F0" d="M69,34.9C69,50,56.7,62.2,41.6,62.2c-15.1,0-27.3-12.2-27.3-27.3
					c0-15.1,12.2-27.3,27.3-27.3C56.7,7.5,69,19.8,69,34.9z"/>
				<path id="path195" fill="#F0F1F1" d="M68.8,34.8c0,14.9-12.1,27-27,27c-14.9,0-27-12.1-27-27c0-14.9,12.1-27,27-27
					C56.7,7.8,68.8,19.9,68.8,34.8z"/>
				<path id="path197" fill="#F1F1F2" d="M68.6,34.7c0,14.7-11.9,26.7-26.7,26.7c-14.7,0-26.7-11.9-26.7-26.7
					C15.3,20,27.2,8.1,41.9,8.1C56.7,8.1,68.6,20,68.6,34.7z"/>
				<path id="path199" fill="#F2F2F3" d="M68.4,34.7C68.4,49.2,56.6,61,42.1,61c-14.5,0-26.3-11.8-26.3-26.3
					c0-14.5,11.8-26.3,26.3-26.3C56.6,8.3,68.4,20.1,68.4,34.7z"/>
				<path id="path201" fill="#F3F3F3" d="M68.2,34.6c0,14.4-11.6,26-26,26c-14.4,0-26-11.6-26-26c0-14.4,11.6-26,26-26
					C56.6,8.6,68.2,20.3,68.2,34.6z"/>
				<path id="path203" fill="#F3F4F4" d="M68,34.5c0,14.2-11.5,25.7-25.7,25.7c-14.2,0-25.7-11.5-25.7-25.7
					c0-14.2,11.5-25.7,25.7-25.7C56.5,8.9,68,20.4,68,34.5z"/>
				<path id="path205" fill="#F3F4F4" d="M67.8,34.5c0,14-11.3,25.3-25.3,25.3c-14,0-25.3-11.3-25.3-25.3c0-14,11.3-25.3,25.3-25.3
					C56.5,9.1,67.8,20.5,67.8,34.5z"/>
				<path id="path207" fill="#F4F5F5" d="M67.7,34.4c0,13.8-11.2,25-25,25c-13.8,0-25-11.2-25-25c0-13.8,11.2-25,25-25
					C56.5,9.4,67.7,20.6,67.7,34.4z"/>
				<path id="path209" fill="#F5F6F6" d="M67.5,34.4C67.5,48,56.4,59,42.8,59c-13.6,0-24.7-11-24.7-24.7c0-13.6,11-24.7,24.7-24.7
					C56.4,9.7,67.5,20.7,67.5,34.4z"/>
				<path id="path211" fill="#F6F6F7" d="M67.2,34.3c0,13.4-10.8,24.2-24.2,24.2c-13.4,0-24.2-10.8-24.2-24.2
					c0-13.4,10.8-24.2,24.2-24.2C56.4,10.1,67.2,20.9,67.2,34.3z"/>
				<path id="path213" fill="#F7F7F8" d="M67,34.2c0,13.1-10.6,23.7-23.7,23.7c-13.1,0-23.7-10.6-23.7-23.7
					c0-13.1,10.6-23.7,23.7-23.7C56.4,10.4,67,21.1,67,34.2z"/>
				<path id="path215" fill="#F8F8F9" d="M66.8,34.1c0,12.8-10.4,23.2-23.2,23.2c-12.8,0-23.2-10.4-23.2-23.2
					c0-12.8,10.4-23.2,23.2-23.2C56.4,10.8,66.8,21.2,66.8,34.1z"/>
				<path id="path217" fill="#F9F9FA" d="M66.5,34c0,12.6-10.2,22.8-22.8,22.8C31.2,56.7,21,46.5,21,34c0-12.6,10.2-22.8,22.8-22.8
					C56.3,11.2,66.5,21.4,66.5,34z"/>
				<path id="path219" fill="#FAFBFB" d="M66.3,33.9c0,12.3-10,22.3-22.3,22.3c-12.3,0-22.3-10-22.3-22.3c0-12.3,10-22.3,22.3-22.3
					C56.3,11.6,66.3,21.6,66.3,33.9z"/>
				<path id="path221" fill="#FAFBFB" d="M66.1,33.8c0,12-9.8,21.8-21.8,21.8c-12,0-21.8-9.8-21.8-21.8c0-12.1,9.8-21.8,21.8-21.8
					C56.3,12,66.1,21.7,66.1,33.8z"/>
				<path id="path223" fill="#FCFCFC" d="M65.7,33.7c0,11.8-9.6,21.4-21.4,21.4C32.6,55.1,23,45.5,23,33.7
					c0-11.8,9.6-21.4,21.4-21.4C56.2,12.3,65.7,21.9,65.7,33.7z"/>
				<path id="path225" fill="#FDFDFD" d="M65.4,33.6c0,11.6-9.4,20.9-20.9,20.9c-11.6,0-20.9-9.4-20.9-20.9
					c0-11.6,9.4-20.9,20.9-20.9C56,12.7,65.4,22.1,65.4,33.6z"/>
				<path id="path227" fill="#FDFDFD" d="M65.1,33.6c0,11.3-9.2,20.5-20.5,20.5s-20.5-9.2-20.5-20.5c0-11.3,9.2-20.5,20.5-20.5
					S65.1,22.3,65.1,33.6z"/>
				<path id="path229" fill="#FFFFFF" d="M64.8,33.5c0,11.1-9,20-20,20c-11.1,0-20-9-20-20c0-11.1,9-20,20-20
					C55.8,13.5,64.8,22.4,64.8,33.5z"/>
			</g>
		</g>
	</g>
	<g id="g5">
		<path id="path7" d="M143.4,49l-4.3-4.5c-0.1-0.1-0.2-0.3-0.1-0.5c0,0,3.3-5.5,3.3-5.5c0.1-0.2,0.1-0.3,0.1-0.3
			c0-0.3-0.3-0.6-0.6-0.6h-2.4c-0.2,0-0.5,0.1-0.6,0.3l-2.1,3.6c-0.1,0.1-0.3,0.2-0.5,0.1c0,0-3.4-3.5-3.4-3.5
			c-0.1-0.1-0.1-0.1-0.1-0.2c0-0.1,0-0.2,0.1-0.2l0,0c1.9-1.1,4.1-2.7,4.1-5.6c0-3.3-2.4-5.5-5.9-5.5c-3.4,0-6.1,2.3-6.1,5.8
			c0,1.5,0.6,3,1.9,4.6l0,0c0.1,0.1,0.1,0.2,0.1,0.2c0,0.1-0.1,0.2-0.1,0.2c-2.9,1.6-4.3,3.8-4.3,6.4c0,4.5,3.8,6.8,7.5,6.8
			c2.5,0,4.5-1,6.4-3.2c0,0,0,0,0,0c0.1-0.1,0.3-0.1,0.5,0l2.3,2.4c0,0,0.1,0.1,0.1,0.1c0.1,0.1,0.3,0.2,0.5,0.2h3.1
			c0.4,0,0.6-0.3,0.6-0.6C143.6,49.3,143.5,49.1,143.4,49L143.4,49z M131.2,29.8c1.4,0,2.2,1,2.2,2.2c0,1.4-1.3,2.3-2.8,3.1l-0.1,0
			c-0.1,0.1-0.3,0-0.4-0.1c0,0,0,0,0,0c-0.7-0.7-1.5-1.9-1.5-2.7C128.6,30.9,129.7,29.8,131.2,29.8z M134.3,45L134.3,45
			c-1.1,1.3-2.4,2.2-4.1,2.2c-2.1,0-3.8-1.5-3.8-3.5c0-1.7,0.7-2.7,2.9-4c0.2-0.1,0.3-0.1,0.4,0l4.5,4.7c0.1,0.1,0.1,0.2,0.1,0.2
			c0,0,0,0,0,0C134.3,44.9,134.3,45,134.3,45z"/>
		<path id="path9" d="M119.8,47.2c0,0-0.1,0-0.1,0c-3.5,0-5.2-1.8-5.2-5.5V31.1c0-0.2,0.2-0.3,0.3-0.3h5.4c0.4,0,0.6-0.3,0.6-0.6
			v-2.4c0-0.4-0.3-0.6-0.6-0.6h-5.4c-0.2,0-0.4-0.2-0.4-0.4v-4.9c0-0.4-0.3-0.6-0.6-0.7h-0.1c0,0-2.8,0.2-2.8,0.2
			c-0.3,0-0.6,0.3-0.6,0.6v4.7c0,0.2-0.2,0.3-0.3,0.3h-3.4c-0.4,0-0.6,0.3-0.6,0.6l0,2.4c0,0.2,0.1,0.3,0.2,0.5
			c0.1,0.1,0.3,0.2,0.5,0.2h3.4c0.2,0,0.3,0.1,0.3,0.3l0,11.4c0,6.1,4.6,8.3,8.6,8.3c0,0,0.5,0,0.8,0c0.4,0,0.6-0.3,0.6-0.6v-2.2
			C120.4,47.5,120.1,47.2,119.8,47.2z"/>
		<path id="path11" d="M104.2,49.1c-0.2-0.6-0.3-1.3-0.3-1.6c0-0.2,0-1.1,0-1.1V35.2c0-6-4.2-8.1-8.1-8.1c-3.1,0-6,0.8-7.8,2
			c-0.2,0.1-0.3,0.3-0.3,0.4c0,0.2,0,0.3,0.1,0.5c0,0,1.5,2,1.5,2c0.2,0.3,0.6,0.3,0.9,0.1c0,0,0.2-0.1,0.2-0.1
			c1.4-0.9,3.1-1.4,4.8-1.4c4.9,0,4.7,3.8,4.7,4.3c0,0.3-0.2,0.3-0.3,0.3c0,0-0.8,0-0.8,0C95,35,85.5,36.3,85.5,43.9
			c0,4.5,3.7,6.7,7.2,6.7c3.4,0,6.1-1.3,7.4-3l0,0c0,0,0,0,0.1,0c0,0,0.1,0,0.1,0.1c0,0.2,0,0.7,0,1.1c0,0.4,0.1,0.6,0.1,0.8
			c0.1,0.2,0.2,0.4,0.3,0.4c0.1,0,0.2,0.1,0.3,0.1c0,0,2.7,0,2.7,0c0.4,0,0.6-0.3,0.6-0.6C104.3,49.4,104.2,49.1,104.2,49.1z
			 M100,40.3c-0.6,3.9-2.5,6.1-6,6.7c-2.5,0.4-4.7-0.6-4.9-3.3c-0.1-2.9,3.3-5.4,9.5-5.1c0,0,0.5,0,0.8,0.1c0.3,0,0.4,0.1,0.6,0.3
			C100.2,39.1,100.2,39.4,100,40.3z"/>
		<path id="path13" d="M156.3,47.2c0,0-0.1,0-0.1,0c-3.5,0-5.2-1.8-5.2-5.5V31.1c0-0.2,0.2-0.3,0.3-0.3h5.4c0.4,0,0.7-0.3,0.7-0.6
			v-2.4c0-0.4-0.3-0.6-0.7-0.6h-5.4c-0.2,0-0.4-0.2-0.4-0.4v-4.9c0-0.4-0.3-0.6-0.6-0.7h-0.1c0,0-2.8,0.2-2.8,0.2
			c-0.3,0-0.6,0.3-0.6,0.6v4.7c0,0.2-0.2,0.3-0.3,0.3h-3.4c-0.4,0-0.6,0.3-0.6,0.6l0,2.4c0,0.2,0.1,0.3,0.2,0.5
			c0.1,0.1,0.3,0.2,0.5,0.2h3.4c0.2,0,0.3,0.1,0.3,0.3v11.4c0,6.1,4.6,8.3,8.6,8.3c0,0,0.5,0,0.8,0c0.4,0,0.6-0.3,0.6-0.6l0-2.2
			C157,47.5,156.7,47.2,156.3,47.2z"/>
	</g>
	<path id="path21" fill="#32A5DD" d="M2.9,25c0-1.5,0.2-2.6,0.6-3.6c0.7-1.4,1.5-2.8,2.4-4.1c-0.2,0.4-0.4,0.8-0.4,1.3
		c0,3.4,8.2,7.7,19.4,9.1c3.8,0.5,13.8,1.9,21.6,1.2c15.7-1.3,19.2-6.8,19.2-10.3c0-1-0.5-2.4-1.1-3.2c0.7,0.9,1.4,1.9,2,2.9
		c1.2,2.1,1,2.9,1,3.3c0,7.3-13.5,12-22.6,14.5C21.9,42.4,2.9,33.7,2.9,25z M10.4,14.8c0,3.3,4.8,8.5,18.6,8.5
		c8.2,0,14.8-1.6,19.8-3.3c8-2.7,12-5.9,11.8-8.3c0-0.4-0.2-1-0.6-1.5c-1.8-1.6-3.7-3-5.8-4.2c1.4,0.8,2.1,1.7,2.1,2.8
		c0,3.6-8.8,6.9-20.4,7.2c-11.5,0.3-21.1-2.5-21.3-6.1c-0.1-1.2,0.8-2.4,2.4-3.4C15.8,7.2,14.6,8,13.5,9
		C10.3,11.6,10.4,14.4,10.4,14.8z M40.4,57.1c-7,0.2-19.4-2.2-27.2-5.3C6.9,49.2,0.7,44.2,0.1,39.5c0.1,1.1,0.2,2.3,0.4,3.4
		c3.8,21,30.2,19.8,34.8,19.2c33.2-3.7,36-17.9,36.5-20.7c0.1-0.6,0.1-1.2,0.2-1.8C71.3,43.4,65.7,56.2,40.4,57.1z M15.1,61.9
		c-6-2.5-10.1-6.6-11.7-9.5c1.5,3.2,3.5,6.2,5.9,8.8c7.8,7.3,19.7,8.2,25.2,8.2c23.2,0,31.5-12.2,33.4-15.5c0.3-0.7,0.7-1.3,1-2
		C65.1,59.5,46.1,74.7,15.1,61.9z M71.3,31.4c0-0.6-0.1-1.7-0.3-2.9c-0.2-0.8-0.4-1.6-0.7-2.4c0.4,1.5,0.4,2.5,0.4,2.9
		c0,1.8-2.2,12.7-24,14.7c-1.9,0.2-15.7,0.4-27.8-2.7c-8-2-16.1-5.9-17.6-11.4C1,28.8,1.1,28,1.3,27.3l0,0c-0.6,2.2-1,4.4-1.2,6.8
		c0.1,5.7,5.1,12.4,14.2,15.3c10.4,3.3,16.8,3.4,31.9,0C71.6,43.7,71.3,32.7,71.3,31.4z"/>
	<path id="path23" fill="#0096D7" d="M45.2,36.1c0.6-0.2,1.2-0.3,1.9-0.5c-2.8-0.6-5.8-0.9-8.8-0.9c-5.8,0-11.3,1.2-15.9,3.2
		C28.9,38.7,36.8,38.3,45.2,36.1z M42.2,21.9c2.5-0.5,4.7-1.2,6.6-1.8c1.1-0.4,2.1-0.7,3-1.1c-2.7-0.5-5.2-0.8-6.8-1
		c-6.3-0.6-15.6,1.2-18,1.7c-0.7,0.2-4.2,0.9-8.3,2.3c1,0.3,2.1,0.5,3.2,0.7c3.8-1.1,7.7-1.7,11.4-1.7
		C35.6,21.1,38.8,21.4,42.2,21.9z M42.9,43.8c-2.3,0-5.4-0.1-8.9-0.4c-6.2,0.7-11.5,3.5-14.5,7.4c1,0.2,2,0.4,2.9,0.6
		c3.2-3.5,8.5-5.8,14.6-5.8c4.4,0,8.5,1.2,11.6,3.2c1.2-0.3,2.4-0.6,3.4-0.9C49.6,46,46.4,44.6,42.9,43.8z M63.3,28.5
		c1.8-1.3,3.2-2.8,3.9-4.5c-0.9-0.5-1.9-1-2.9-1.5c-1.1,1.4-2.8,2.7-5.5,3.8C60.4,27,61.9,27.7,63.3,28.5z M55.3,32.7
		c1.9-0.8,3.8-1.6,5.4-2.6c-1.7-0.9-3.7-1.8-6.1-2.5c-2.2,0.6-4.9,1-8.1,1.3C45.6,29,44.7,29,43.7,29c2.2,0.4,4.4,1,6.4,1.7
		C52,31.4,53.7,32,55.3,32.7z M59.6,40.9c-1.6,0.7-3.4,1.2-5.5,1.7c1.5,0.9,2.9,2,4.1,3.1c1.7-0.7,3.2-1.5,4.5-2.3
		C61.7,42.5,60.7,41.6,59.6,40.9z M12.5,24.5c-2.8,1.4-5.6,3.1-7.8,5.2c0.3,0.4,0.7,0.9,1.1,1.3c2.4-2.1,5.5-4,8.8-5.6
		C14,25.1,13.2,24.8,12.5,24.5z M21.5,41.7c-0.9-0.2-1.8-0.4-2.7-0.6c-0.6-0.1-1.1-0.3-1.7-0.5c-2.9,2-5.2,4.5-6.7,7.2
		c0.9,0.5,1.9,0.9,2.9,1.3c0.9-1.5,2-3,3.5-4.2C18.2,43.6,19.8,42.6,21.5,41.7z M11.4,56.4c0-1.7,0.3-3.4,0.9-5
		c-1-0.4-1.9-0.9-2.9-1.5c-0.6,1.7-1,3.4-1,5.2c0,0.4,0,0.7,0,1c1,0.7,2,1.4,3,1.9C11.5,57.5,11.4,57,11.4,56.4z M31,28.4
		c-2.5-0.3-4.7-0.5-6-0.7c-0.9-0.1-1.7-0.2-2.6-0.4c-4.8,1.5-9.1,3.8-12.4,6.6c0.7,0.4,1.4,0.7,2.2,1.1C17,31.5,23.6,29.1,31,28.4z
		 M20.9,64c-1-0.3-2-0.7-3-1c0.8,1.7,2.1,3.3,3.7,4.7c1.3,0.4,2.6,0.7,3.9,0.9C23.5,67.3,21.9,65.8,20.9,64z M70.5,26.7
		c0-0.1-0.1-0.2-0.1-0.4C70.4,26.4,70.4,26.5,70.5,26.7C70.4,26.6,70.5,26.6,70.5,26.7z M4.9,43.9c0.9-2.3,2.4-4.4,4.3-6.4
		c-0.6-0.3-1.3-0.7-1.9-1c-1.7,1.8-3,3.8-3.8,5.9C3.9,42.9,4.4,43.4,4.9,43.9z M64.7,38.1c0.9,0.7,1.6,1.4,2.2,2.1
		c0.9-0.8,1.6-1.7,2.2-2.4c-0.4-0.7-0.9-1.5-1.5-2.2C66.8,36.4,65.9,37.3,64.7,38.1z M8.9,58.3c0.3,1.3,0.8,2.6,1.4,3.8
		c1.3,1.1,2.7,2,4.1,2.8c-1-1.4-1.8-2.9-2.3-4.5C10.9,59.8,9.8,59.1,8.9,58.3z M50.8,66.9c1.7-0.6,3.2-1.2,4.6-1.9
		c0.5-0.8,1-1.6,1.3-2.4c-1.2,0.6-2.4,1.1-3.8,1.6C52.4,65.2,51.7,66.1,50.8,66.9z M54,55.1c0.3,0.9,0.5,1.8,0.6,2.7
		c1.1-0.4,2-0.8,3-1.2c-0.1-0.8-0.3-1.6-0.6-2.4C56,54.5,55.1,54.8,54,55.1z M60.4,12.8c-1.7-0.6-3.6-1-5.8-1.3
		c-2.6,2-7.8,3.6-14.2,4.2c4.1,0.4,9,1.1,13.7,2.2C57.7,16.2,59.8,14.4,60.4,12.8z M15,10.8c-1.6,0.7-3.1,1.4-4.3,2.1
		c-0.2,0.7-0.3,1.2-0.3,1.5c1.6-0.8,3.5-1.7,5.6-2.5C15.5,11.6,15.2,11.2,15,10.8z M2.5,32.2c-0.9,1.3-1.7,2.7-2.1,4.2
		c0.1,0.5,0.3,0.9,0.4,1.4c0.5-1.5,1.4-3,2.6-4.4C3.1,33,2.8,32.6,2.5,32.2z M3.9,49.2c0-1,0.1-2,0.3-3c-0.5-0.5-1-1-1.4-1.5
		c-0.3,1.5-0.4,2.9-0.2,4.4c0.5,0.9,1,1.8,1.6,2.6C4,50.8,3.9,50,3.9,49.2z M12.9,19.2c3.8-1.7,8.5-3.1,14-3.7
		c-1.9-0.2-3.6-0.6-5.1-1c-3.6,1-7,2.2-9.9,3.6C12.1,18.5,12.5,18.9,12.9,19.2z M67.1,50.2c-0.2-0.5-0.4-1.1-0.7-1.6
		c-1.2,1.1-2.5,2.1-4.2,3.1c0.3,0.7,0.5,1.3,0.6,2C64.6,52.6,66,51.4,67.1,50.2z M71,42.6c-0.3,0.7-0.8,1.5-1.3,2.4
		c0.1,0.5,0.2,1,0.3,1.5c0.6-1,1-1.9,1.2-2.7C71.1,43.4,71.1,43,71,42.6z M71,28.6c-0.1-0.3-0.2-0.7-0.3-1c0-0.1-0.1-0.2-0.2-0.4
		c0.2,0.9,0.1,1.5,0.1,1.8c0,0.6-0.2,2.1-1.3,4.1c0.5,0.6,0.9,1.2,1.3,1.8c0.7-1.8,0.7-3.1,0.7-3.4C71.3,30.9,71.3,29.8,71,28.6z
		 M19.4,58.7c0-1.6,0.4-3.1,1.1-4.5c-0.9-0.2-1.8-0.5-2.6-0.8c-0.7,1.5-1.1,3.1-1.1,4.7c0,0.7,0.1,1.5,0.2,2.2
		c0.9,0.3,1.8,0.5,2.7,0.7C19.5,60.3,19.4,59.5,19.4,58.7z M62.9,58.7c-0.1,0.5-0.2,1-0.4,1.5c2.9-2.6,4.5-5.1,5.2-6.3
		c0,0,0.1-0.1,0.1-0.1c0-0.1,0-0.2,0-0.3C66.8,55.2,65.1,57,62.9,58.7z M56.3,8.3c1.4,0.6,2.8,1.3,3.9,2.2c-0.1-0.1-0.1-0.2-0.2-0.3
		c-1.2-1-2.4-2-3.7-2.9c-0.3-0.2-0.7-0.4-1-0.6C55.9,7.3,56.2,7.8,56.3,8.3z M5.9,17.3c-0.1,0.2-0.2,0.3-0.3,0.5
		c0.1-0.1,0.1-0.1,0.2-0.2C5.8,17.5,5.9,17.4,5.9,17.3z M64.9,21.6c1,0.5,1.8,1,2.6,1.6c0.2-0.5,0.2-1.1,0.2-1.7
		c0-0.4,0.1-1.2-1-3.2c-0.6-1-1.3-2-2-2.9c0,0,0,0,0,0c0.5,0.8,1,2.2,1,3.2C65.8,19.5,65.5,20.5,64.9,21.6z M8,22
		c-0.5-0.3-0.8-0.7-1.2-1C5.2,22,3.9,23.2,3,24.4c0,0.2,0,0.4,0,0.6c0,0.4,0,0.8,0.1,1.2C4.3,24.8,5.9,23.4,8,22z M3.4,52.4
		c0.8,1.8,1.8,3.5,2.9,5.1c-0.6-1-1.1-2-1.5-3C4.3,53.8,3.8,53.1,3.4,52.4z M1.3,27.4c-0.2,0.8-0.4,1.6-0.6,2.5
		c0.1-0.3,0.2-0.7,0.4-1C1.1,28.3,1.2,27.8,1.3,27.4z M0.3,40.5c-0.1-0.3-0.2-0.7-0.2-1c0.1,0.9,0.1,1.8,0.3,2.6
		C0.3,41.6,0.3,41.1,0.3,40.5z"/>
</g>
<text transform="matrix(1 0 0 1 85.4514 64.1667)" font-family="'MyriadPro-Regular'" font-size="12">authorized retailer</text>
</svg>
